<svg width="20.000000" height="19.000000" viewBox="0 0 20 19" fill="none" xmlns="http://www.w3.org/2000/svg" xmlns:xlink="http://www.w3.org/1999/xlink">
	<desc>
			Created with Pixso.
	</desc>
	<defs/>
	<path id="Shape" d="M19.41 8.1L18.05 8.1L3.83 8.1L3.83 1.77C3.83 1.35 4.15 1.02 4.57 1.02L7.07 1.02L7.07 1.97C6.39 2.07 5.84 2.66 5.84 3.39L5.84 4.84C5.84 5.17 6.1 5.43 6.42 5.43L8.73 5.43C9.05 5.43 9.31 5.17 9.31 4.84L9.31 3.39C9.31 2.73 8.86 2.17 8.24 2L8.24 0.42C8.24 0.09 7.98 -0.17 7.66 -0.17L4.57 -0.17C3.53 -0.17 2.69 0.69 2.69 1.74L2.69 8.07L2.17 8.07L1.94 8.07L0.58 8.07C0.25 8.07 0 8.34 0 8.67C0 9 0.25 9.26 0.58 9.26L1.36 9.26L1.36 11.9C1.36 13.84 2.79 15.46 4.64 15.72L3.92 17.34C3.79 17.63 3.92 17.96 4.22 18.1C4.28 18.13 4.38 18.16 4.44 18.16C4.67 18.16 4.87 18.03 4.96 17.83L5.87 15.79L14.8 15.79C14.87 15.79 14.93 15.79 15.03 15.79L15.94 17.83C16.03 18.06 16.23 18.16 16.46 18.16C16.52 18.16 16.62 18.16 16.68 18.1C16.98 17.96 17.11 17.63 16.98 17.34L16.16 15.52C17.59 14.96 18.63 13.55 18.63 11.9L18.63 9.26L19.41 9.26C19.74 9.26 20 9 20 8.67C20 8.37 19.74 8.1 19.41 8.1ZM8.14 4.28L6.98 4.28L6.98 3.39C6.98 3.22 7.11 3.09 7.27 3.09L7.85 3.09C8.01 3.09 8.14 3.22 8.14 3.39L8.14 4.28ZM17.5 11.9C17.5 13.38 16.29 14.63 14.8 14.63L5.19 14.63C3.73 14.63 2.5 13.41 2.5 11.9L2.5 9.26L17.5 9.26L17.5 11.9Z" fill="#45525B" fill-opacity="1.000000" fill-rule="nonzero"/>
</svg>
