<svg width="48.000000" height="48.000000" viewBox="0 0 48 48" fill="none" xmlns="http://www.w3.org/2000/svg" xmlns:xlink="http://www.w3.org/1999/xlink">
	<desc>
			Created with Pixso.
	</desc>
	<defs>
		<clipPath id="clip4_75">
			<rect id="IMAGE" width="24.000000" height="24.000000" transform="translate(12.000000 12.000000)" fill="white" fill-opacity="0"/>
		</clipPath>
		<clipPath id="clip4_72">
			<rect id="Frame" width="48.000000" height="48.000000" fill="white" fill-opacity="0"/>
		</clipPath>
	</defs>
	<g clip-path="url(#clip4_72)">
		<rect id="Rectangle" width="48.000000" height="48.000000" fill="#45525B" fill-opacity="1.000000"/>
		<g clip-path="url(#clip4_75)">
			<path id="Shape" d="M35.88 22.03L35.92 21.99C35.92 21.99 35.92 21.95 35.96 21.91C35.96 21.87 35.96 21.87 36 21.83L36 21.8C36 21.76 36 21.76 36 21.72L36 21.68L36 21.64C36 21.64 36 21.64 36 21.6C35.18 16.98 30.02 13.5 23.98 13.5C17.93 13.5 12.78 16.98 12 21.57C12 21.57 12 21.57 12 21.6L12 21.64L12 21.68C12 21.72 12 21.72 12 21.76C12 21.8 12 21.8 12 21.83C12 21.87 12 21.87 12.03 21.91C12.03 21.95 12.03 21.95 12.07 21.99C12.07 22.03 12.11 22.03 12.11 22.06L12.15 22.1L12.19 22.14L12.23 22.18L12.27 22.22L12.31 22.25C12.31 22.25 12.35 22.29 12.39 22.29C12.39 22.29 12.42 22.33 12.46 22.33C12.46 22.33 12.5 22.33 12.54 22.33C12.58 22.33 12.58 22.33 12.62 22.33L12.66 22.33L12.7 22.33L15.12 22.33L15.12 33.08L14.49 33.08C14.1 33.08 13.79 33.39 13.79 33.77C13.79 34.15 14.1 34.46 14.49 34.46L21.13 34.46C21.52 34.46 21.83 34.15 21.83 33.77C21.83 33.39 21.52 33.08 21.13 33.08L20.54 33.08L20.54 22.37L27.49 22.37L27.49 33.12L26.82 33.12C26.43 33.12 26.12 33.42 26.12 33.81C26.12 34.19 26.43 34.5 26.82 34.5L33.46 34.5C33.85 34.5 34.16 34.19 34.16 33.81C34.16 33.42 33.85 33.12 33.46 33.12L32.95 33.12L32.95 22.37L35.29 22.37C35.33 22.37 35.37 22.37 35.41 22.37C35.45 22.37 35.45 22.37 35.49 22.37C35.53 22.37 35.53 22.37 35.57 22.37C35.6 22.37 35.6 22.37 35.64 22.33C35.68 22.33 35.68 22.29 35.72 22.29L35.76 22.25L35.8 22.22L35.84 22.18L35.88 22.14C35.88 22.06 35.88 22.06 35.88 22.03ZM23.98 14.83C29.01 14.83 33.34 17.47 34.43 21.07L13.52 21.07C14.61 17.43 18.94 14.83 23.98 14.83ZM19.18 33.12L16.44 33.12L16.44 22.37L19.18 22.37L19.18 33.12ZM31.59 33.12L28.85 33.12L28.85 22.37L31.59 22.37L31.59 33.12Z" fill="#FFFFFF" fill-opacity="1.000000" fill-rule="nonzero"/>
		</g>
	</g>
</svg>
