<svg width="48.000000" height="48.000000" viewBox="0 0 48 48" fill="none" xmlns="http://www.w3.org/2000/svg" xmlns:xlink="http://www.w3.org/1999/xlink">
	<desc>
			Created with Pixso.
	</desc>
	<defs>
		<clipPath id="clip4_86">
			<rect id="IMAGE" width="24.000000" height="24.000000" transform="translate(12.000000 12.000000)" fill="white" fill-opacity="0"/>
		</clipPath>
		<clipPath id="clip4_83">
			<rect id="Frame" width="48.000000" height="48.000000" fill="white" fill-opacity="0"/>
		</clipPath>
	</defs>
	<g clip-path="url(#clip4_83)">
		<rect id="Rectangle" width="48.000000" height="48.000000" fill="#45525B" fill-opacity="1.000000"/>
		<g clip-path="url(#clip4_86)">
			<path id="Shape" d="M30.8 27.02C30.8 25.81 29.81 24.83 28.58 24.83L28.3 24.83L29.21 17.54L29.21 17.5C29.29 16.05 28.77 14.69 27.74 13.63C26.71 12.58 25.36 12 23.9 12C22.43 12 21.04 12.58 20.05 13.63C19.02 14.69 18.5 16.05 18.58 17.5L18.58 17.54L19.49 24.83L19.22 24.83C17.99 24.83 17 25.81 17 27.02L17 28.7C17 29.28 17.23 29.83 17.63 30.22L17.63 35.29C17.63 35.68 17.95 36 18.34 36C18.74 36 19.06 35.68 19.06 35.29L19.06 30.88C19.14 30.88 19.22 30.88 19.26 30.88L20.92 30.88L20.92 34.2C20.92 34.59 21.24 34.9 21.64 34.9C22.03 34.9 22.35 34.59 22.35 34.2L22.35 30.88L25.64 30.88L25.64 34.2C25.64 34.59 25.96 34.9 26.35 34.9C26.75 34.9 27.07 34.59 27.07 34.2L27.07 30.88L28.73 30.88C28.81 30.88 28.89 30.88 28.93 30.88L28.93 35.29C28.93 35.68 29.25 36 29.65 36C30.04 36 30.36 35.68 30.36 35.29L30.36 30.26C30.76 29.87 31 29.32 31 28.74L31 27.02L30.8 27.02ZM19.89 17.38C19.85 16.33 20.25 15.31 20.96 14.53C21.71 13.75 22.75 13.32 23.82 13.32C24.93 13.32 25.92 13.75 26.67 14.53C27.43 15.31 27.82 16.33 27.74 17.38L26.83 24.8L20.84 24.8L19.89 17.38ZM19.18 29.56C19.02 29.56 18.86 29.52 18.74 29.44C18.7 29.4 18.66 29.4 18.62 29.36C18.42 29.2 18.3 28.97 18.3 28.74L18.3 27.06C18.3 26.59 18.7 26.24 19.14 26.24L20.17 26.24L27.47 26.24L28.5 26.24C28.97 26.24 29.33 26.63 29.33 27.06L29.33 28.74C29.33 29.01 29.21 29.2 29.01 29.36C28.97 29.4 28.93 29.4 28.89 29.44C28.77 29.52 28.62 29.56 28.46 29.56L19.18 29.56Z" fill="#FFFFFF" fill-opacity="1.000000" fill-rule="nonzero"/>
		</g>
	</g>
</svg>
