<svg width="15.000000" height="20.000000" viewBox="0 0 15 20" fill="none" xmlns="http://www.w3.org/2000/svg" xmlns:xlink="http://www.w3.org/1999/xlink">
	<desc>
			Created with Pixso.
	</desc>
	<defs/>
	<path id="Combined-Shape" d="M12.22 0C13.21 0 14.05 0.81 14.08 1.85L14.08 18.11C14.08 19.15 13.24 20 12.22 20L1.77 20C0.75 20 -0.09 19.15 -0.09 18.11L-0.09 1.85C-0.09 0.81 0.75 0 1.74 0L12.22 0ZM12.18 1.1L1.74 1.1C1.33 1.1 1 1.46 1 1.85L1 18.11C1 18.53 1.36 18.86 1.74 18.86L12.18 18.86C12.6 18.86 12.92 18.5 12.92 18.11L12.92 1.85C12.92 1.43 12.57 1.1 12.18 1.1ZM10.48 8.68C11.06 8.68 11.57 9.17 11.57 9.78C11.57 10.4 11.09 10.89 10.48 10.89C9.87 10.89 9.39 10.4 9.39 9.78C9.39 9.17 9.87 8.68 10.48 8.68Z" fill="#45525B" fill-opacity="1.000000" fill-rule="nonzero"/>
</svg>
