<?xml version="1.0" encoding="iso-8859-1"?>
<!-- Uploaded to: SVG Repo, www.svgrepo.com, Generator: SVG Repo Mixer Tools -->
<svg fill="#000000" height="800px" width="800px" version="1.1" id="Layer_1" xmlns="http://www.w3.org/2000/svg" xmlns:xlink="http://www.w3.org/1999/xlink" 
	 viewBox="0 0 512 512" xml:space="preserve">
<g>
	<g>
		<path d="M437.019,74.981C388.668,26.628,324.38,0,256,0C182.385,0,113.651,30.975,65.041,85.5l4.543-31.8
			c0.647-4.535-2.504-8.735-7.038-9.383c-4.535-0.644-8.735,2.504-9.383,7.037l-8.847,61.927c-0.406,2.845,0.69,5.698,2.896,7.541
			c1.514,1.263,3.4,1.926,5.316,1.926c0.878,0,1.764-0.139,2.622-0.426l53.08-17.693c4.346-1.449,6.694-6.145,5.246-10.491
			c-1.449-4.346-6.147-6.695-10.491-5.246l-26.668,8.89C121.838,46.021,186.602,16.587,256,16.587
			c63.949,0,124.071,24.903,169.291,70.122c45.219,45.22,70.122,105.341,70.122,169.291c0,35.905-7.751,70.427-23.037,102.605
			c-1.965,4.138-0.205,9.084,3.932,11.051c1.149,0.546,2.36,0.805,3.553,0.805c3.103,0,6.078-1.749,7.498-4.737
			C503.71,331.303,512,294.387,512,256C512,187.62,485.372,123.332,437.019,74.981z"/>
	</g>
</g>
<g>
	<g>
		<path d="M464.788,391.179c-2.207-1.841-5.21-2.41-7.937-1.501l-53.08,17.693c-4.346,1.449-6.694,6.145-5.246,10.491
			c1.449,4.346,6.146,6.694,10.491,5.246l26.61-8.87c-20.175,22.845-44.726,41.902-71.827,55.592
			c-33.604,16.975-69.873,25.581-107.799,25.581c-63.949,0-124.071-24.903-169.291-70.122C41.491,380.071,16.587,319.949,16.587,256
			c0-35.905,7.751-70.427,23.037-102.605c1.965-4.138,0.205-9.084-3.932-11.051c-4.138-1.965-9.084-0.203-11.051,3.932
			C8.29,180.697,0,217.613,0,256c0,68.38,26.628,132.668,74.981,181.019S187.62,512,256,512c40.549,0,79.333-9.206,115.277-27.364
			c28.483-14.388,54.333-34.317,75.69-58.188l-4.55,31.851c-0.647,4.535,2.504,8.735,7.038,9.383
			c0.398,0.056,0.793,0.084,1.183,0.084c4.061,0,7.609-2.986,8.201-7.122l8.847-61.927
			C468.09,395.873,466.994,393.02,464.788,391.179z"/>
	</g>
</g>
<g>
	<g>
		<path d="M256,97.313C168.5,97.313,97.313,168.5,97.313,256S168.5,414.687,256,414.687S414.687,343.5,414.687,256
			S343.5,97.313,256,97.313z M256,398.099c-78.354,0-142.099-63.746-142.099-142.099S177.646,113.901,256,113.901
			S398.099,177.646,398.099,256S334.354,398.099,256,398.099z"/>
	</g>
</g>
<g>
	<g>
		<path d="M282.54,336.173h-0.553V228.907h0.553c4.58,0,8.294-3.713,8.294-8.294c0-4.58-3.713-8.294-8.294-8.294h-53.08
			c-4.58,0-8.294,3.713-8.294,8.294c0,4.58,3.713,8.294,8.294,8.294h0.553v107.266h-0.553c-4.58,0-8.294,3.713-8.294,8.294
			c0,4.58,3.713,8.294,8.294,8.294h53.08c4.58,0,8.294-3.713,8.294-8.294C290.834,339.886,287.12,336.173,282.54,336.173z
			 M265.4,336.173H246.6V228.907H265.4V336.173z"/>
	</g>
</g>
<g>
	<g>
		<path d="M256,150.393c-14.329,0-25.987,11.658-25.987,25.987s11.658,25.987,25.987,25.987s25.987-11.658,25.987-25.987
			S270.329,150.393,256,150.393z M256,185.78c-5.183,0-9.4-4.216-9.4-9.4s4.217-9.4,9.4-9.4s9.4,4.217,9.4,9.4
			S261.183,185.78,256,185.78z"/>
	</g>
</g>
</svg>