<svg width="48.000000" height="48.000000" viewBox="0 0 48 48" fill="none" xmlns="http://www.w3.org/2000/svg" xmlns:xlink="http://www.w3.org/1999/xlink">
	<desc>
			Created with Pixso.
	</desc>
	<defs>
		<clipPath id="clip4_64">
			<rect id="IMAGE" width="24.000000" height="24.000000" transform="translate(12.000000 12.000000)" fill="white" fill-opacity="0"/>
		</clipPath>
		<clipPath id="clip4_61">
			<rect id="Frame" width="48.000000" height="48.000000" fill="white" fill-opacity="0"/>
		</clipPath>
	</defs>
	<g clip-path="url(#clip4_61)">
		<rect id="Rectangle" width="48.000000" height="48.000000" fill="#45525B" fill-opacity="1.000000"/>
		<g clip-path="url(#clip4_64)">
			<path id="Combined-Shape" d="M15.7 26.58C16.05 26.42 16.44 26.58 16.59 26.93C16.75 27.29 16.59 27.68 16.24 27.84C14.45 28.63 13.4 29.61 13.4 30.56C13.4 32.49 17.72 34.66 24 34.66C30.27 34.66 34.63 32.49 34.59 30.56C34.59 29.61 33.58 28.63 31.83 27.88C31.48 27.72 31.32 27.33 31.48 26.97C31.63 26.62 32.02 26.46 32.37 26.62C34.71 27.64 36 29.02 36 30.56C36 33.63 30.85 36 24 36C17.14 36 12 33.67 12 30.56C12 29.02 13.32 27.6 15.7 26.58ZM24 12C28.32 12 31.83 15.54 31.83 19.92C31.83 23.19 27.74 28.31 25.28 31.07C24.97 31.46 24.5 31.66 24 31.66C23.49 31.66 23.02 31.42 22.71 31.07C20.25 28.31 16.16 23.19 16.16 19.92C16.16 15.54 19.67 12 24 12ZM24 13.37C20.45 13.37 17.53 16.29 17.53 19.92C17.53 21.93 19.87 25.75 23.72 30.12C23.8 30.24 23.96 30.24 24 30.24C24.03 30.24 24.15 30.24 24.27 30.12C28.16 25.75 30.46 21.93 30.46 19.92C30.46 16.29 27.54 13.37 24 13.37Z" fill="#FFFFFF" fill-opacity="1.000000" fill-rule="nonzero"/>
		</g>
	</g>
</svg>
