<svg width="20.000000" height="20.000000" viewBox="0 0 17 20" fill="none" xmlns="http://www.w3.org/2000/svg" xmlns:xlink="http://www.w3.org/1999/xlink">
	<desc>
			Created with Pixso.
	</desc>
	<defs/>
	<path id="Shape" d="M16.65 13.27C16.65 13.24 16.65 13.24 16.65 13.24L13.94 7.24L13.94 1.98C13.94 0.9 13.08 0 12 0L3.96 0C2.91 0 2.02 0.87 2.02 1.98L2.02 7.24L-0.69 13.24C-0.72 13.31 -0.75 13.4 -0.75 13.47L-0.75 19.41C-0.75 19.74 -0.5 20 -0.18 20C0.14 20 0.39 19.74 0.39 19.41L0.39 17.69L15.6 17.69L15.6 19.41C15.6 19.74 15.85 20 16.17 20C16.49 20 16.75 19.74 16.75 19.41L16.75 13.47C16.68 13.4 16.68 13.34 16.65 13.27ZM2.94 7.92L12.98 7.92L15.25 12.92L0.71 12.92L2.94 7.92ZM3.17 1.98C3.17 1.52 3.52 1.13 3.99 1.13L12 1.13C12.44 1.13 12.82 1.49 12.82 1.98L12.82 6.78L3.17 6.78L3.17 1.98ZM0.39 16.55L0.39 14.05L15.6 14.05L15.6 16.55L0.39 16.55Z" fill="#45525B" fill-opacity="1.000000" fill-rule="nonzero"/>
</svg>
