<svg width="160.000000" height="58.000000" viewBox="0 0 160 58" fill="none" xmlns="http://www.w3.org/2000/svg" xmlns:xlink="http://www.w3.org/1999/xlink">
	<desc>
			Created with Pixso.
	</desc>
	<defs/>
	<path id="Combined-Shape" d="M90.34 38.53C92.56 38.53 94.33 39.09 95.65 40.21C96.97 41.34 97.7 42.85 97.83 44.76L93.33 44.76C93.26 44.01 92.95 43.41 92.4 42.97C91.85 42.53 91.12 42.31 90.2 42.31C89.35 42.31 88.69 42.46 88.24 42.78C87.78 43.1 87.55 43.54 87.55 44.11C87.55 44.75 87.86 45.23 88.49 45.56C89.12 45.88 90.09 46.22 91.41 46.56C92.76 46.9 93.87 47.25 94.74 47.62C95.62 47.98 96.37 48.54 97.01 49.3C97.65 50.06 97.98 51.06 98 52.31C98 53.4 97.7 54.38 97.11 55.24C96.52 56.1 95.66 56.78 94.56 57.26C93.45 57.75 92.15 57.99 90.67 57.99C89.15 57.99 87.78 57.72 86.57 57.16C85.36 56.61 84.4 55.85 83.7 54.9C82.99 53.95 82.6 52.89 82.54 51.73L87.28 51.73C87.37 52.46 87.72 53.06 88.34 53.54C88.95 54.01 89.72 54.25 90.64 54.25C91.54 54.25 92.24 54.07 92.74 53.71C93.24 53.34 93.5 52.88 93.5 52.31C93.5 51.7 93.19 51.24 92.57 50.93C91.96 50.63 90.98 50.29 89.63 49.93C88.24 49.59 87.1 49.24 86.22 48.87C85.33 48.51 84.57 47.96 83.93 47.21C83.29 46.46 82.97 45.45 82.97 44.18C82.97 43.13 83.27 42.18 83.86 41.32C84.46 40.46 85.31 39.78 86.42 39.28C87.53 38.78 88.83 38.53 90.34 38.53ZM118.17 38.53C119.56 38.53 120.78 38.81 121.82 39.38C122.86 39.95 123.7 40.66 124.33 41.52L124.33 38.83L129.07 38.83L129.07 57.69L124.33 57.69L124.33 54.93C123.72 55.82 122.89 56.55 121.82 57.13C120.76 57.71 119.53 58 118.14 58C116.57 58 115.14 57.59 113.85 56.77C112.56 55.95 111.54 54.8 110.79 53.32C110.04 51.83 109.67 50.12 109.67 48.19C109.67 46.29 110.04 44.6 110.79 43.12C111.54 41.65 112.56 40.51 113.85 39.72C115.14 38.93 116.58 38.53 118.17 38.53ZM150.82 38.53C152.59 38.53 154.17 38.91 155.58 39.68C156.97 40.46 158.06 41.55 158.84 42.97C159.61 44.39 160 46.01 160 47.85C160 48.53 159.95 49.15 159.86 49.69L146.25 49.69C146.36 51.05 146.83 52.12 147.66 52.89C148.49 53.66 149.51 54.05 150.72 54.05C152.46 54.05 153.71 53.29 154.45 51.77L159.52 51.77C158.99 53.58 157.96 55.07 156.43 56.24C154.91 57.41 153.04 57.99 150.82 57.99C149.02 57.99 147.42 57.59 145.99 56.79C144.57 55.98 143.46 54.84 142.66 53.37C141.87 51.89 141.47 50.19 141.47 48.26C141.47 46.31 141.86 44.6 142.65 43.12C143.43 41.65 144.53 40.51 145.94 39.72C147.35 38.93 148.98 38.53 150.82 38.53ZM81.29 33.9L81.29 37.78L72.38 37.78L72.38 43.74L80.29 43.74L80.29 47.51L72.38 47.51L72.38 53.81L81.29 53.81L81.29 57.69L67.68 57.69L67.68 33.9L81.29 33.9ZM105.33 34.17L105.33 38.83L109.5 38.83L109.5 42.75L105.33 42.75L105.33 51.87C105.33 52.5 105.48 52.96 105.78 53.25C106.09 53.53 106.6 53.67 107.32 53.67L109.5 53.67L109.5 57.69L106.54 57.69C102.57 57.69 100.59 55.74 100.59 51.84L100.59 42.75L98.37 42.75L98.37 38.83L100.59 38.83L100.59 34.17L105.33 34.17ZM137.14 34.17L137.14 38.83L141.3 38.83L141.3 42.75L137.14 42.75L137.14 51.87C137.14 52.5 137.29 52.96 137.59 53.25C137.89 53.53 138.4 53.67 139.12 53.67L141.3 53.67L141.3 57.69L138.35 57.69C134.38 57.69 132.39 55.74 132.39 51.84L132.39 42.75L130.17 42.75L130.17 38.83L132.39 38.83L132.39 34.17L137.14 34.17ZM119.38 42.72C118.51 42.72 117.7 42.93 116.96 43.36C116.22 43.79 115.62 44.42 115.16 45.25C114.71 46.08 114.48 47.06 114.48 48.19C114.48 49.33 114.71 50.32 115.16 51.17C115.62 52.02 116.23 52.67 116.98 53.13C117.73 53.58 118.53 53.81 119.38 53.81C120.26 53.81 121.08 53.59 121.84 53.15C122.6 52.7 123.21 52.07 123.65 51.24C124.1 50.41 124.33 49.42 124.33 48.26C124.33 47.1 124.1 46.11 123.65 45.28C123.21 44.46 122.6 43.82 121.84 43.38C121.08 42.93 120.26 42.72 119.38 42.72ZM150.68 42.44C149.52 42.44 148.54 42.8 147.74 43.51C146.95 44.23 146.46 45.22 146.28 46.49L155.12 46.49C155.1 45.27 154.66 44.29 153.81 43.55C152.96 42.81 151.92 42.44 150.68 42.44Z" fill="#FFFFFF" fill-opacity="1.000000" fill-rule="evenodd"/>
	<path id="Combined-Shape" d="M32.71 0L56.36 23.99L56.36 57.69L50.88 57.69L50.88 26.29L28.83 3.93L32.71 0ZM17.2 15.72L34.4 33.18L34.4 57.69L0 57.69L0 33.18L17.2 15.72ZM24.96 7.86L45.39 28.59L45.39 57.69L39.9 57.69L39.9 30.88L21.08 11.79L24.96 7.86Z" fill="#FFFFFF" fill-opacity="1.000000" fill-rule="evenodd"/>
</svg>
