<svg width="102.000000" height="37.000000" viewBox="0 0 102 37" fill="none" xmlns="http://www.w3.org/2000/svg" xmlns:xlink="http://www.w3.org/1999/xlink">
	<desc>
			Created with Pixso.
	</desc>
	<defs/>
	<path id="Combined-Shape" d="M57.59 24.58C59 24.58 60.13 24.93 60.97 25.65C61.82 26.37 62.28 27.33 62.37 28.55L59.5 28.55C59.45 28.07 59.26 27.69 58.91 27.41C58.56 27.13 58.09 26.99 57.5 26.99C56.96 26.99 56.54 27.09 56.25 27.29C55.96 27.49 55.81 27.78 55.81 28.14C55.81 28.54 56.01 28.85 56.41 29.06C56.81 29.27 57.43 29.48 58.27 29.7C59.13 29.92 59.84 30.14 60.4 30.37C60.95 30.61 61.43 30.96 61.84 31.45C62.25 31.93 62.46 32.57 62.47 33.37C62.47 34.06 62.28 34.69 61.91 35.24C61.53 35.79 60.98 36.22 60.28 36.53C59.57 36.84 58.75 36.99 57.8 36.99C56.83 36.99 55.96 36.82 55.19 36.46C54.42 36.11 53.8 35.63 53.35 35.02C52.9 34.41 52.66 33.74 52.62 33L55.64 33C55.69 33.46 55.92 33.85 56.31 34.15C56.71 34.46 57.19 34.61 57.78 34.61C58.35 34.61 58.8 34.49 59.12 34.26C59.44 34.03 59.6 33.73 59.6 33.37C59.6 32.98 59.41 32.69 59.01 32.49C58.62 32.29 58 32.08 57.14 31.85C56.25 31.63 55.53 31.41 54.96 31.18C54.4 30.95 53.91 30.59 53.5 30.11C53.1 29.64 52.89 28.99 52.89 28.18C52.89 27.51 53.08 26.91 53.46 26.36C53.84 25.81 54.38 25.37 55.09 25.05C55.8 24.74 56.63 24.58 57.59 24.58ZM75.33 24.58C76.22 24.58 76.99 24.76 77.66 25.12C78.32 25.48 78.86 25.94 79.26 26.49L79.26 24.77L82.28 24.77L82.28 36.8L79.26 36.8L79.26 35.04C78.87 35.61 78.34 36.07 77.66 36.44C76.98 36.81 76.2 37 75.31 37C74.31 37 73.4 36.73 72.58 36.21C71.76 35.69 71.11 34.96 70.63 34.01C70.15 33.06 69.91 31.97 69.91 30.74C69.91 29.53 70.15 28.45 70.63 27.51C71.11 26.57 71.76 25.84 72.58 25.34C73.4 24.83 74.32 24.58 75.33 24.58ZM96.14 24.58C97.27 24.58 98.28 24.82 99.18 25.31C100.07 25.81 100.76 26.51 101.26 27.41C101.75 28.31 102 29.35 102 30.53C102 30.96 101.97 31.35 101.91 31.7L93.23 31.7C93.3 32.57 93.6 33.25 94.13 33.74C94.66 34.23 95.31 34.48 96.08 34.48C97.19 34.48 97.99 33.99 98.46 33.02L101.7 33.02C101.35 34.18 100.7 35.13 99.72 35.88C98.75 36.62 97.56 36.99 96.14 36.99C95 36.99 93.98 36.74 93.07 36.22C92.16 35.71 91.45 34.98 90.95 34.04C90.44 33.1 90.19 32.02 90.19 30.79C90.19 29.54 90.44 28.45 90.94 27.51C91.44 26.57 92.14 25.84 93.04 25.34C93.94 24.83 94.97 24.58 96.14 24.58ZM51.82 21.62L51.82 24.1L46.14 24.1L46.14 27.9L51.18 27.9L51.18 30.31L46.14 30.31L46.14 34.32L51.82 34.32L51.82 36.8L43.14 36.8L43.14 21.62L51.82 21.62ZM67.15 21.8L67.15 24.77L69.8 24.77L69.8 27.27L67.15 27.27L67.15 33.09C67.15 33.49 67.24 33.79 67.44 33.97C67.63 34.15 67.95 34.24 68.41 34.24L69.8 34.24L69.8 36.8L67.92 36.8C65.39 36.8 64.12 35.55 64.12 33.07L64.12 27.27L62.71 27.27L62.71 24.77L64.12 24.77L64.12 21.8L67.15 21.8ZM87.42 21.8L87.42 24.77L90.08 24.77L90.08 27.27L87.42 27.27L87.42 33.09C87.42 33.49 87.52 33.79 87.71 33.97C87.9 34.15 88.23 34.24 88.69 34.24L90.08 34.24L90.08 36.8L88.19 36.8C85.66 36.8 84.4 35.55 84.4 33.07L84.4 27.27L82.98 27.27L82.98 24.77L84.4 24.77L84.4 21.8L87.42 21.8ZM76.1 27.25C75.55 27.25 75.03 27.38 74.56 27.66C74.09 27.93 73.71 28.34 73.42 28.86C73.12 29.39 72.98 30.02 72.98 30.74C72.98 31.47 73.12 32.1 73.42 32.64C73.71 33.18 74.09 33.6 74.57 33.89C75.05 34.18 75.56 34.32 76.1 34.32C76.66 34.32 77.18 34.18 77.67 33.9C78.16 33.62 78.54 33.21 78.83 32.69C79.11 32.16 79.26 31.52 79.26 30.79C79.26 30.05 79.11 29.41 78.83 28.89C78.54 28.36 78.16 27.95 77.67 27.67C77.18 27.39 76.66 27.25 76.1 27.25ZM96.06 27.07C95.32 27.07 94.69 27.3 94.18 27.76C93.68 28.21 93.36 28.85 93.25 29.66L98.89 29.66C98.87 28.88 98.59 28.25 98.05 27.78C97.51 27.31 96.84 27.07 96.06 27.07Z" fill="#45525B" fill-opacity="1.000000" fill-rule="evenodd"/>
	<path id="Combined-Shape" d="M20.85 0L35.93 15.3L35.93 36.8L32.43 36.8L32.43 16.77L18.38 2.5L20.85 0ZM10.96 10.03L21.93 21.17L21.93 36.8L0 36.8L0 21.17L10.96 10.03ZM15.91 5.01L28.93 18.23L28.93 36.8L25.44 36.8L25.44 19.7L13.44 7.52L15.91 5.01Z" fill="#FF8A63" fill-opacity="1.000000" fill-rule="evenodd"/>
</svg>
