<svg width="128.000000" height="102.000000" viewBox="0 0 128 102" fill="none" xmlns="http://www.w3.org/2000/svg" xmlns:xlink="http://www.w3.org/1999/xlink">
	<desc>
			Created with Pixso.
	</desc>
	<defs/>
	<path id="Combined-Shape" d="M31.41 75.26C34.49 75.26 36.94 76.03 38.78 77.57C40.61 79.11 41.62 81.19 41.81 83.81L35.56 83.81C35.47 82.78 35.04 81.96 34.28 81.36C33.52 80.75 32.5 80.45 31.23 80.45C30.04 80.45 29.14 80.66 28.5 81.1C27.86 81.54 27.54 82.15 27.54 82.92C27.54 83.8 27.98 84.46 28.85 84.91C29.72 85.36 31.07 85.82 32.91 86.29C34.77 86.76 36.31 87.24 37.52 87.74C38.73 88.24 39.78 89.01 40.67 90.05C41.55 91.1 42.01 92.48 42.04 94.19C42.04 95.68 41.63 97.02 40.81 98.21C39.98 99.39 38.8 100.32 37.26 100.99C35.72 101.66 33.93 102 31.88 102C29.76 102 27.87 101.61 26.19 100.85C24.51 100.09 23.18 99.05 22.21 97.74C21.23 96.43 20.69 94.98 20.6 93.39L27.17 93.39C27.3 94.39 27.78 95.22 28.64 95.87C29.49 96.53 30.56 96.85 31.83 96.85C33.07 96.85 34.05 96.6 34.75 96.11C35.45 95.61 35.79 94.97 35.79 94.19C35.79 93.35 35.37 92.72 34.51 92.3C33.66 91.87 32.3 91.42 30.43 90.92C28.51 90.45 26.93 89.97 25.7 89.47C24.47 88.97 23.42 88.21 22.53 87.18C21.65 86.15 21.2 84.76 21.2 83.02C21.2 81.58 21.62 80.28 22.44 79.09C23.26 77.91 24.44 76.97 25.98 76.29C27.52 75.6 29.33 75.26 31.41 75.26ZM70.01 75.26C71.93 75.26 73.62 75.65 75.07 76.43C76.51 77.21 77.67 78.19 78.54 79.37L78.54 75.68L85.11 75.68L85.11 101.58L78.54 101.58L78.54 97.79C77.7 99 76.54 100.01 75.07 100.8C73.59 101.6 71.89 102 69.96 102C67.79 102 65.81 101.43 64.02 100.31C62.23 99.19 60.82 97.61 59.78 95.57C58.73 93.53 58.22 91.18 58.22 88.53C58.22 85.92 58.73 83.59 59.78 81.57C60.82 79.54 62.23 77.99 64.02 76.89C65.81 75.8 67.8 75.26 70.01 75.26ZM115.27 75.26C117.72 75.26 119.92 75.79 121.87 76.85C123.81 77.91 125.32 79.41 126.39 81.36C127.46 83.31 128 85.54 128 88.07C128 89 127.93 89.84 127.81 90.59L108.93 90.59C109.09 92.46 109.74 93.92 110.89 94.98C112.04 96.04 113.45 96.57 115.13 96.57C117.55 96.57 119.28 95.53 120.3 93.44L127.34 93.44C126.6 95.93 125.17 97.98 123.05 99.59C120.94 101.19 118.35 102 115.27 102C112.78 102 110.55 101.44 108.58 100.34C106.61 99.23 105.07 97.66 103.97 95.64C102.86 93.61 102.31 91.27 102.31 88.63C102.31 85.95 102.85 83.59 103.94 81.57C105.03 79.54 106.55 77.99 108.51 76.89C110.47 75.8 112.72 75.26 115.27 75.26ZM18.87 68.9L18.87 74.23L6.52 74.23L6.52 82.41L17.48 82.41L17.48 87.6L6.52 87.6L6.52 96.24L18.87 96.24L18.87 101.57L0 101.57L0 68.9L18.87 68.9ZM52.2 69.27L52.2 75.68L57.98 75.68L57.98 81.05L52.2 81.05L52.2 93.58C52.2 94.45 52.41 95.08 52.83 95.47C53.25 95.86 53.96 96.06 54.95 96.06L57.98 96.06L57.98 101.57L53.88 101.57C48.38 101.57 45.63 98.89 45.63 93.53L45.63 81.05L42.55 81.05L42.55 75.68L45.63 75.68L45.63 69.27L52.2 69.27ZM96.3 69.27L96.3 75.68L102.08 75.68L102.08 81.05L96.3 81.05L96.3 93.58C96.3 94.45 96.51 95.08 96.93 95.47C97.35 95.86 98.06 96.06 99.05 96.06L102.08 96.06L102.08 101.57L97.98 101.57C92.48 101.57 89.73 98.89 89.73 93.53L89.73 81.05L86.65 81.05L86.65 75.68L89.73 75.68L89.73 69.27L96.3 69.27ZM71.69 81.01C70.47 81.01 69.36 81.3 68.33 81.9C67.3 82.49 66.47 83.35 65.84 84.49C65.2 85.63 64.88 86.97 64.88 88.53C64.88 90.09 65.2 91.45 65.84 92.62C66.47 93.79 67.31 94.69 68.35 95.31C69.39 95.94 70.51 96.24 71.69 96.24C72.9 96.24 74.03 95.94 75.09 95.33C76.15 94.73 76.99 93.85 77.61 92.72C78.23 91.58 78.54 90.22 78.54 88.63C78.54 87.04 78.23 85.67 77.61 84.54C76.99 83.4 76.15 82.53 75.09 81.92C74.03 81.31 72.9 81.01 71.69 81.01ZM115.08 80.63C113.47 80.63 112.11 81.12 111 82.1C109.9 83.09 109.23 84.45 108.98 86.19L121.24 86.19C121.2 84.51 120.6 83.16 119.42 82.15C118.24 81.14 116.79 80.63 115.08 80.63Z" fill="#45525B" fill-opacity="1.000000" fill-rule="evenodd"/>
	<path id="Combined-Shape" d="M68.45 0L91.71 23.37L91.71 56.19L86.31 56.19L86.31 25.6L64.63 3.82L68.45 0ZM53.2 15.31L70.11 32.32L70.11 56.19L36.28 56.19L36.28 32.32L53.2 15.31ZM60.83 7.65L80.92 27.84L80.92 56.19L75.52 56.19L75.52 30.08L57.02 11.48L60.83 7.65Z" fill="#FF8A63" fill-opacity="1.000000" fill-rule="evenodd"/>
</svg>
